<svg width="131" height="115" viewBox="0 0 131 115" fill="none" xmlns="http://www.w3.org/2000/svg">
<path d="M8.96307 99.8153C8.91572 99.2945 8.70502 98.8897 8.33097 98.6009C7.96165 98.3073 7.43371 98.1605 6.74716 98.1605C6.29261 98.1605 5.91383 98.2197 5.6108 98.3381C5.30777 98.4564 5.08049 98.6198 4.92898 98.8281C4.77746 99.0317 4.69934 99.2661 4.6946 99.5312C4.68513 99.7491 4.72775 99.9408 4.82244 100.107C4.92188 100.272 5.06392 100.419 5.24858 100.547C5.43797 100.67 5.66525 100.779 5.9304 100.874C6.19555 100.968 6.49384 101.051 6.82528 101.122L8.07528 101.406C8.79498 101.562 9.42945 101.771 9.97869 102.031C10.5327 102.292 10.9967 102.602 11.3707 102.962C11.7495 103.321 12.036 103.736 12.2301 104.205C12.4242 104.673 12.5237 105.199 12.5284 105.781C12.5237 106.7 12.2917 107.488 11.8324 108.146C11.3731 108.804 10.7126 109.309 9.85085 109.659C8.99384 110.009 7.95928 110.185 6.74716 110.185C5.5303 110.185 4.4697 110.002 3.56534 109.638C2.66098 109.273 1.95786 108.719 1.45597 107.976C0.954072 107.232 0.696023 106.293 0.681818 105.156H4.0483C4.0767 105.625 4.20218 106.016 4.42472 106.328C4.64725 106.641 4.95265 106.877 5.34091 107.038C5.7339 107.199 6.18845 107.28 6.70455 107.28C7.17803 107.28 7.58049 107.216 7.91193 107.088C8.24811 106.96 8.50616 106.783 8.68608 106.555C8.866 106.328 8.95833 106.068 8.96307 105.774C8.95833 105.5 8.87311 105.265 8.70739 105.071C8.54167 104.872 8.28598 104.702 7.94034 104.56C7.59943 104.413 7.16383 104.278 6.63352 104.155L5.11364 103.8C3.85417 103.511 2.86222 103.045 2.13778 102.401C1.41335 101.752 1.0535 100.876 1.05824 99.7727C1.0535 98.8731 1.29498 98.0848 1.78267 97.4077C2.27036 96.7306 2.94508 96.2027 3.80682 95.8239C4.66856 95.4451 5.65104 95.2557 6.75426 95.2557C7.88116 95.2557 8.8589 95.4474 9.6875 95.831C10.5208 96.2098 11.1671 96.7424 11.6264 97.429C12.0857 98.1155 12.3201 98.911 12.3295 99.8153H8.96307ZM14.304 95.4545H18.6577L22.3509 104.46H22.5213L26.2145 95.4545H30.5682V110H27.1449V101.065H27.0241L23.5298 109.908H21.3423L17.848 101.016H17.7273V110H14.304V95.4545ZM35.9073 110H32.1289L37.0366 95.4545H41.717L46.6246 110H42.8462L39.43 99.1193H39.3164L35.9073 110ZM35.4031 104.276H43.3008V106.946H35.4031V104.276ZM48.1907 110V95.4545H54.1992C55.2882 95.4545 56.2281 95.651 57.0188 96.044C57.8143 96.4323 58.4274 96.991 58.8583 97.7202C59.2892 98.4446 59.5046 99.304 59.5046 100.298C59.5046 101.307 59.2844 102.164 58.8441 102.869C58.4038 103.57 57.7788 104.105 56.9691 104.474C56.1594 104.839 55.2006 105.021 54.0927 105.021H50.293V102.251H53.4393C53.9696 102.251 54.4123 102.183 54.7674 102.045C55.1272 101.903 55.3995 101.69 55.5842 101.406C55.7688 101.117 55.8612 100.748 55.8612 100.298C55.8612 99.8485 55.7688 99.4768 55.5842 99.1832C55.3995 98.8849 55.1272 98.6624 54.7674 98.5156C54.4076 98.3641 53.9648 98.2884 53.4393 98.2884H51.7063V110H48.1907ZM56.3796 103.352L60.0018 110H56.1665L52.6154 103.352H56.3796ZM60.957 98.3097V95.4545H73.2511V98.3097H68.8406V110H65.3746V98.3097H60.957ZM87.5071 100.724H83.956C83.9086 100.36 83.8116 100.031 83.6648 99.7372C83.518 99.4437 83.3239 99.1927 83.0824 98.9844C82.8409 98.776 82.5545 98.6174 82.223 98.5085C81.8963 98.3949 81.5341 98.3381 81.1364 98.3381C80.4309 98.3381 79.8224 98.5109 79.3111 98.8565C78.8045 99.2022 78.4138 99.7017 78.1392 100.355C77.8693 101.009 77.7344 101.799 77.7344 102.727C77.7344 103.693 77.8717 104.503 78.1463 105.156C78.4257 105.805 78.8163 106.295 79.3182 106.626C79.8248 106.953 80.4238 107.116 81.1151 107.116C81.5033 107.116 81.8561 107.067 82.1733 106.967C82.4953 106.868 82.777 106.723 83.0185 106.534C83.2647 106.34 83.4659 106.106 83.6222 105.831C83.7831 105.552 83.8944 105.237 83.956 104.886L87.5071 104.908C87.4455 105.552 87.2585 106.186 86.946 106.811C86.6383 107.436 86.2145 108.007 85.6747 108.523C85.1349 109.034 84.4768 109.441 83.7003 109.744C82.9285 110.047 82.0431 110.199 81.044 110.199C79.7277 110.199 78.5488 109.91 77.5071 109.332C76.4702 108.75 75.651 107.902 75.0497 106.79C74.4484 105.677 74.1477 104.323 74.1477 102.727C74.1477 101.127 74.4531 99.7704 75.0639 98.6577C75.6747 97.545 76.5009 96.6998 77.5426 96.1222C78.5843 95.5445 79.7514 95.2557 81.044 95.2557C81.9247 95.2557 82.7391 95.3788 83.4872 95.625C84.2353 95.8665 84.8935 96.2216 85.4616 96.6903C86.0298 97.1544 86.4915 97.7249 86.8466 98.402C87.2017 99.0791 87.4219 99.8532 87.5071 100.724ZM92.294 110H88.5156L93.4233 95.4545H98.1037L103.011 110H99.233L95.8168 99.1193H95.7031L92.294 110ZM91.7898 104.276H99.6875V106.946H91.7898V104.276ZM104.577 110V95.4545H110.586C111.675 95.4545 112.615 95.651 113.406 96.044C114.201 96.4323 114.814 96.991 115.245 97.7202C115.676 98.4446 115.891 99.304 115.891 100.298C115.891 101.307 115.671 102.164 115.231 102.869C114.79 103.57 114.165 104.105 113.356 104.474C112.546 104.839 111.587 105.021 110.479 105.021H106.68V102.251H109.826C110.356 102.251 110.799 102.183 111.154 102.045C111.514 101.903 111.786 101.69 111.971 101.406C112.156 101.117 112.248 100.748 112.248 100.298C112.248 99.8485 112.156 99.4768 111.971 99.1832C111.786 98.8849 111.514 98.6624 111.154 98.5156C110.794 98.3641 110.352 98.2884 109.826 98.2884H108.093V110H104.577ZM112.766 103.352L116.388 110H112.553L109.002 103.352H112.766ZM117.344 98.3097V95.4545H129.638V98.3097H125.227V110H121.761V98.3097H117.344Z" fill="white"/>
<path d="M50.5373 74.5455C50.5373 76.5644 49.8141 78.3116 48.3679 79.7869C46.9216 81.2623 45.2089 82 43.2298 82C41.2507 82 39.538 81.2623 38.0918 79.7869C36.6455 78.3116 35.9224 76.5644 35.9224 74.5455C35.9224 72.5265 36.6455 70.7794 38.0918 69.304C39.538 67.8286 41.2507 67.0909 43.2298 67.0909C45.2089 67.0909 46.9216 67.8286 48.3679 69.304C49.8141 70.7794 50.5373 72.5265 50.5373 74.5455ZM101.689 74.5455C101.689 76.5644 100.966 78.3116 99.52 79.7869C98.0737 81.2623 96.3611 82 94.382 82C92.4029 82 90.6902 81.2623 89.2439 79.7869C87.7976 78.3116 87.0745 76.5644 87.0745 74.5455C87.0745 72.5265 87.7976 70.7794 89.2439 69.304C90.6902 67.8286 92.4029 67.0909 94.382 67.0909C96.3611 67.0909 98.0737 67.8286 99.52 69.304C100.966 70.7794 101.689 72.5265 101.689 74.5455ZM108.997 11.1818V41C108.997 41.9318 108.683 42.7569 108.055 43.4751C107.427 44.1934 106.656 44.6108 105.743 44.7273L46.1414 51.8324C46.6361 54.1619 46.8835 55.5208 46.8835 55.9091C46.8835 56.5303 46.4268 57.7727 45.5134 59.6364H98.0357C99.0252 59.6364 99.8816 60.0052 100.605 60.7429C101.328 61.4806 101.689 62.3542 101.689 63.3636C101.689 64.3731 101.328 65.2467 100.605 65.9844C99.8816 66.7221 99.0252 67.0909 98.0357 67.0909H39.5761C38.5865 67.0909 37.7302 66.7221 37.0071 65.9844C36.2839 65.2467 35.9224 64.3731 35.9224 63.3636C35.9224 62.9366 36.0746 62.325 36.3791 61.5291C36.6835 60.7332 36.988 60.0343 37.2925 59.4325C37.597 58.8307 38.0061 58.0542 38.5199 57.103C39.0337 56.1518 39.3287 55.5791 39.4048 55.3849L29.3 7.45455H17.6537C16.6642 7.45455 15.8078 7.0857 15.0847 6.34801C14.3616 5.61032 14 4.73674 14 3.72727C14 2.7178 14.3616 1.84422 15.0847 1.10653C15.8078 0.368845 16.6642 0 17.6537 0H32.2686C32.8776 0 33.4199 0.126184 33.8957 0.378551C34.3714 0.630919 34.7425 0.931818 35.0089 1.28125C35.2753 1.63068 35.5227 2.1063 35.7511 2.7081C35.9794 3.3099 36.1317 3.81463 36.2078 4.2223C36.2839 4.62997 36.3886 5.20265 36.5218 5.94034C36.655 6.67803 36.7406 7.18277 36.7787 7.45455H105.343C106.333 7.45455 107.189 7.82339 107.912 8.56108C108.635 9.29877 108.997 10.1723 108.997 11.1818Z" fill="white"/>
</svg>
